<svg width="64" height="64" fill="none" xmlns="http://www.w3.org/2000/svg">
    <path d="M15.486 29.797c-.534-3.278-.802-4.917-.48-6.4a8 8 0 0 1 1.77-3.542c.994-1.148 2.466-1.918 5.409-3.458l4.38-2.292c2.172-1.136 3.258-1.705 4.402-1.928a8 8 0 0 1 3.066 0c1.144.223 2.23.792 4.401 1.928l4.381 2.292c2.943 1.54 4.415 2.31 5.408 3.458a8 8 0 0 1 1.77 3.541c.322 1.484.055 3.123-.479 6.401l-1.75 10.74c-.39 2.396-.586 3.593-1.086 4.634a8 8 0 0 1-1.814 2.44c-.853.778-1.944 1.31-4.125 2.373l-2.63 1.283c-2.06 1.003-3.088 1.505-4.166 1.702a8.001 8.001 0 0 1-2.886 0c-1.078-.197-2.107-.7-4.165-1.702l-2.63-1.283c-2.183-1.063-3.273-1.595-4.126-2.374a8 8 0 0 1-1.814-2.439c-.5-1.04-.695-2.238-1.086-4.634l-1.75-10.74z" stroke="#000" stroke-width="3" stroke-linecap="round" stroke-linejoin="round"/>
    <path d="M25 32.333 29.454 37 39 27" stroke="#FC0" stroke-width="3" stroke-linecap="round" stroke-linejoin="round"/>
</svg>
