<svg width="64" height="64" fill="none" xmlns="http://www.w3.org/2000/svg">
    <path d="M31.424 25.023c-3.985 0-7.227 3.243-7.227 7.228s3.242 7.227 7.227 7.227c3.986 0 7.227-3.242 7.227-7.227 0-3.985-3.241-7.228-7.227-7.228z" fill="#fff"/>
    <path d="M16.144 19.495a.25.25 0 0 0 .105.336l7.657 4.453.018.009a.245.245 0 0 0 .263-.016.235.235 0 0 0 .082-.1 10.039 10.039 0 0 1 7.034-4.955.246.246 0 0 0 .19-.28l-.004-.018-1.623-8.708-.004-.016a.25.25 0 0 0-.271-.199l-.021.005a19.455 19.455 0 0 0-13.426 9.487M11.772 36.315a.25.25 0 0 0 .207.15.248.248 0 0 0 .121-.021l8.265-3.185.018-.007a.248.248 0 0 0 .124-.34 10.037 10.037 0 0 1 .54-8.586.244.244 0 0 0-.101-.323l-.016-.008-7.803-4.19-.014-.007a.249.249 0 0 0-.325.089l-.01.019a19.456 19.456 0 0 0-1.007 16.408M22.276 50.139a.25.25 0 0 0 .304-.178l2.636-8.454.005-.019a.246.246 0 0 0-.19-.309 10.035 10.035 0 0 1-6.395-5.757.247.247 0 0 0-.316-.122l-.016.007-8.128 3.518-.014.007a.249.249 0 0 0-.132.311c0 .007.006.013.009.02A19.454 19.454 0 0 0 22.273 50.14M39.546 50.55a.25.25 0 0 0 .052-.348l-4.935-7.351-.012-.016a.247.247 0 0 0-.36-.046 10.04 10.04 0 0 1-8.492 1.375.25.25 0 0 0-.293.17l-.005.017-2.358 8.535v.014a.25.25 0 0 0 .18.302 19.455 19.455 0 0 0 16.224-2.651M50.788 37.358a.25.25 0 0 0-.242-.256l-8.83-.689h-.019a.247.247 0 0 0-.259.254 10.035 10.035 0 0 1-4.189 7.515.25.25 0 0 0-.092.206.246.246 0 0 0 .044.129l.01.015 5.237 7.14.009.012a.25.25 0 0 0 .349.047 19.456 19.456 0 0 0 7.98-14.37M47.45 20.32a.251.251 0 0 0-.352.026l-6.094 6.427-.014.015a.248.248 0 0 0-.044.257.26.26 0 0 0 .08.102 10.034 10.034 0 0 1 3.203 7.986c0 .032.005.064.017.094a.251.251 0 0 0 .21.155h.017l8.846.428h.016a.249.249 0 0 0 .254-.22v-.021a19.461 19.461 0 0 0-6.136-15.248M31.967 12.4a.248.248 0 0 0-.197.292l1.297 8.762.004.02a.247.247 0 0 0 .305.195 10.036 10.036 0 0 1 8.256 2.41c.026.02.054.035.085.045a.248.248 0 0 0 .252-.073l.012-.012 5.797-6.695.01-.013a.25.25 0 0 0-.015-.336l-.017-.013a19.454 19.454 0 0 0-15.788-4.583" fill="#000"/>
    <path d="M31.423 24.923c-4.04 0-7.327 3.287-7.327 7.327s3.287 7.327 7.327 7.327 7.327-3.287 7.327-7.327-3.287-7.327-7.327-7.327zm5.323 11.457c.112-.297.147-.645.184-.914-.15.143-.31.277-.477.398a4.17 4.17 0 0 1-1.571.716l-1.418-1.545-.02.015 1.027 1.817a4.172 4.172 0 0 1-1.176 1.292 4.53 4.53 0 0 1-.525.329c.266.048.605.122.921.108a6.742 6.742 0 0 1-4.536 0c.315.015.657-.06.924-.108a4.575 4.575 0 0 1-.525-.328 4.184 4.184 0 0 1-1.176-1.292l1.026-1.821-.02-.014-1.417 1.545a4.169 4.169 0 0 1-1.57-.714 4.45 4.45 0 0 1-.477-.397c.035.27.07.62.184.919a6.708 6.708 0 0 1-1.418-4.135c0-.074.003-.147.006-.22.08.315.262.63.397.877.036-.204.087-.405.151-.602.18-.563.476-1.083.87-1.523l2.028.411.008-.023-1.895-.864a4.185 4.185 0 0 1 .195-1.71c.064-.199.141-.392.232-.578-.26.124-.605.274-.859.493a6.75 6.75 0 0 1 3.787-2.748c-.294.172-.548.46-.75.673.204-.028.411-.042.618-.042a4.17 4.17 0 0 1 1.706.35l.235 2.049h.023l.235-2.048a4.17 4.17 0 0 1 1.703-.35c.207 0 .415.014.62.042-.203-.21-.457-.5-.75-.672a6.748 6.748 0 0 1 3.781 2.744c-.253-.217-.596-.368-.854-.49.09.187.167.38.231.578.184.551.25 1.134.195 1.713l-1.89.864.007.023 2.026-.416c.394.44.69.959.868 1.522.065.197.115.398.151.603.133-.246.315-.556.397-.871 0 .07.005.142.005.214a6.706 6.706 0 0 1-1.418 4.13" fill="#1D1D1B"/>
    <path d="m28.465 31.285 1.13 3.483h3.662l1.131-3.483-2.962-2.151-2.961 2.151z" fill="#1D1D1B"/>
</svg>
