<svg width="64" height="64" fill="none" xmlns="http://www.w3.org/2000/svg">
    <path d="M41.5 23H48c2.8 0 4.2 0 5.27.545a5 5 0 0 1 2.185 2.185C56 26.8 56 28.2 56 31v7c0 2.8 0 4.2-.545 5.27a5 5 0 0 1-2.185 2.185C52.2 46 50.8 46 48 46H32" stroke="#000" stroke-width="3" stroke-linecap="round" stroke-linejoin="round"/>
    <path d="M37.5 31.995c.322.77.5 1.617.5 2.504A6.495 6.495 0 0 1 34.965 40M37 21H16c-2.8 0-4.2 0-5.27.545a5 5 0 0 0-2.185 2.185C8 24.8 8 26.2 8 29v7c0 2.8 0 4.2.545 5.27a5 5 0 0 0 2.185 2.185C11.8 44 13.2 44 16 44h11" stroke="#000" stroke-width="3" stroke-linecap="round" stroke-linejoin="round"/>
    <path d="M34.5 26.732A6.5 6.5 0 1 0 30 38.826" stroke="#000" stroke-width="3" stroke-linecap="round" stroke-linejoin="round"/>
    <path d="M39 16 27 48" stroke="#FC0" stroke-width="3" stroke-linecap="round" stroke-linejoin="round"/>
</svg>
