<svg width="64" height="64" fill="none" xmlns="http://www.w3.org/2000/svg">
    <path d="m23.916 42.425-.838 1.244.838-1.244zm6.927-25.893-.837-1.244.837 1.244zm-6.927 4.663-.838-1.245.838 1.245zm.837 1.244 6.928-4.663-1.675-2.488-6.928 4.662 1.675 2.49zm-5.253.767h2.74v-3H19.5v3zM18 38.913V24.706h-3v14.207h3zm4.24 1.5H19.5v3h2.74v-3zm9.44 5.43-6.927-4.663-1.675 2.49 6.928 4.662 1.675-2.489zm2.338-26.822v25.578h3V19.02h-3zm-4.012 29.31c2.989 2.013 7.012-.13 7.012-3.732h-3c0 1.2-1.34 1.915-2.337 1.244l-1.675 2.489zm-7.765-4.918c.298 0 .59.09.837.256l1.675-2.489a4.5 4.5 0 0 0-2.512-.767v3zM15 38.913a4.5 4.5 0 0 0 4.5 4.5v-3a1.5 1.5 0 0 1-1.5-1.5h-3zm4.5-18.707a4.5 4.5 0 0 0-4.5 4.5h3a1.5 1.5 0 0 1 1.5-1.5v-3zm12.18-2.43c.997-.67 2.338.044 2.338 1.245h3c0-3.603-4.023-5.745-7.012-3.733l1.675 2.488zm-8.602 2.174a1.5 1.5 0 0 1-.837.256v3a4.5 4.5 0 0 0 2.512-.767l-1.675-2.489z" fill="#000"/>
    <path d="M42.057 21.706v21.396M48 16.951v30.906" stroke="#FC0" stroke-width="3" stroke-linecap="round" stroke-linejoin="round"/>
</svg>
