<svg width="64" height="64" fill="none" xmlns="http://www.w3.org/2000/svg">
    <path d="M15.5 48.83v0a3.824 3.824 0 0 1-4.47-3.211L8.162 25.875c-.279-1.918-.418-2.877-.312-3.694a6 6 0 0 1 3.52-4.716c.753-.334 1.712-.473 3.63-.752v0M47.1 48.83v0a3.824 3.824 0 0 0 4.47-3.211l2.868-19.744c.278-1.918.418-2.877.312-3.694a6 6 0 0 0-3.52-4.716c-.753-.334-1.712-.473-3.63-.752v0" stroke="#000" stroke-width="3" stroke-linecap="round"/>
    <rect x="19" y="12" width="25" height="40" rx="6" stroke="#FC0" stroke-width="3" stroke-linecap="round"/>
    <path d="M27 47h9" stroke="#FC0" stroke-width="3" stroke-linecap="round" stroke-linejoin="round"/>
</svg>
