<svg width="64" height="64" fill="none" xmlns="http://www.w3.org/2000/svg">
    <rect x="11" y="10" width="43" height="43" rx="10" stroke="#000" stroke-width="3" stroke-linecap="round" stroke-linejoin="round"/>
    <rect x="11" y="10" width="43" height="43" rx="10" stroke="#000" stroke-width="3" stroke-linecap="round" stroke-linejoin="round"/>
    <path d="M17 22.4c0-2.24 0-3.36.436-4.216a4 4 0 0 1 1.748-1.748C20.04 16 21.16 16 23.4 16h.2c2.24 0 3.36 0 4.216.436a4 4 0 0 1 1.748 1.748C30 19.04 30 20.16 30 22.4V29h-6.6c-2.24 0-3.36 0-4.216-.436a4 4 0 0 1-1.748-1.748C17 25.96 17 24.84 17 22.6v-.2z" stroke="#000" stroke-width="3" stroke-linecap="round"/>
    <path d="M35 22.4c0-2.24 0-3.36.436-4.216a4 4 0 0 1 1.748-1.748C38.04 16 39.16 16 41.4 16h.2c2.24 0 3.36 0 4.216.436a4 4 0 0 1 1.748 1.748C48 19.04 48 20.16 48 22.4v.2c0 2.24 0 3.36-.436 4.216a4 4 0 0 1-1.748 1.748C44.96 29 43.84 29 41.6 29H35v-6.6zM17 40.4c0-2.24 0-3.36.436-4.216a4 4 0 0 1 1.748-1.748C20.04 34 21.16 34 23.4 34H30v6.6c0 2.24 0 3.36-.436 4.216a4 4 0 0 1-1.748 1.748C26.96 47 25.84 47 23.6 47h-.2c-2.24 0-3.36 0-4.216-.436a4 4 0 0 1-1.748-1.748C17 43.96 17 42.84 17 40.6v-.2z" stroke="#FC0" stroke-width="3" stroke-linecap="round"/>
    <path d="M35 34h6.6c2.24 0 3.36 0 4.216.436a4 4 0 0 1 1.748 1.748C48 37.04 48 38.16 48 40.4v.2c0 2.24 0 3.36-.436 4.216a4 4 0 0 1-1.748 1.748C44.96 47 43.84 47 41.6 47h-.2c-2.24 0-3.36 0-4.216-.436a4 4 0 0 1-1.748-1.748C35 43.96 35 42.84 35 40.6V34z" stroke="#000" stroke-width="3" stroke-linecap="round"/>
</svg>
