<svg width="64" height="64" fill="none" xmlns="http://www.w3.org/2000/svg">
    <path d="M45.704 33v-2.302a2.648 2.648 0 1 1 5.296 0v7.589C51 45.308 45.308 51 38.287 51c-4.435 0-8.549-2.31-10.857-6.097l-6.02-9.88a2.803 2.803 0 0 1-.41-1.459c0-2.51 3.047-3.755 4.805-1.962l2.686 2.74c.649.661 1.774.202 1.774-.725v-16.19a2.426 2.426 0 1 1 4.853 0V32.1v-6.803a2.647 2.647 0 0 1 5.294 0V31.2v-3.204a2.646 2.646 0 0 1 5.292 0V33z" stroke="#000" stroke-width="3" stroke-linejoin="round"/>
    <path d="M19 25h-7M20 21l-4-4M24 19v-5" stroke="#FC0" stroke-width="3" stroke-linecap="round" stroke-linejoin="round"/>
</svg>
